<?xml version="1.0" encoding="UTF-8"?>
<svg id="Layer_1" data-name="Layer 1" xmlns="http://www.w3.org/2000/svg" version="1.1" xmlns:xlink="http://www.w3.org/1999/xlink" viewBox="0 0 2500 2500">
  <defs>
    <style>
      .cls-1 {
        clip-path: url(#clippath-73);
      }

      .cls-2 {
        clip-path: url(#clippath-72);
      }

      .cls-3 {
        clip-path: url(#clippath-62);
      }

      .cls-4 {
        clip-path: url(#clippath-45);
      }

      .cls-5 {
        clip-path: url(#clippath-63);
      }

      .cls-6 {
        clip-path: url(#clippath-20);
      }

      .cls-7 {
        clip-path: url(#clippath-11);
      }

      .cls-8 {
        clip-path: url(#clippath-16);
      }

      .cls-9 {
        clip-path: url(#clippath-59);
      }

      .cls-10 {
        clip-path: url(#clippath-78);
      }

      .cls-11 {
        clip-path: url(#clippath-93);
      }

      .cls-12 {
        clip-path: url(#clippath-89);
      }

      .cls-13 {
        clip-path: url(#clippath-33);
      }

      .cls-14 {
        clip-path: url(#clippath-64);
      }

      .cls-15 {
        clip-path: url(#clippath-47);
      }

      .cls-16 {
        clip-path: url(#clippath-77);
      }

      .cls-17 {
        clip-path: url(#clippath-41);
      }

      .cls-18 {
        clip-path: url(#clippath-32);
      }

      .cls-19 {
        clip-path: url(#clippath-87);
      }

      .cls-20 {
        clip-path: url(#clippath-83);
      }

      .cls-21 {
        fill: #222f61;
      }

      .cls-21, .cls-22, .cls-23, .cls-24, .cls-25 {
        stroke-width: 0px;
      }

      .cls-26 {
        clip-path: url(#clippath-2);
      }

      .cls-27 {
        clip-path: url(#clippath-13);
      }

      .cls-28 {
        clip-path: url(#clippath-88);
      }

      .cls-29 {
        clip-path: url(#clippath-37);
      }

      .cls-30 {
        clip-path: url(#clippath-46);
      }

      .cls-31 {
        clip-path: url(#clippath-25);
      }

      .cls-32 {
        clip-path: url(#clippath-15);
      }

      .cls-33 {
        clip-path: url(#clippath-6);
      }

      .cls-34 {
        clip-path: url(#clippath-76);
      }

      .cls-35 {
        clip-path: url(#clippath-40);
      }

      .cls-36 {
        clip-path: url(#clippath-26);
      }

      .cls-37 {
        clip-path: url(#clippath-81);
      }

      .cls-38 {
        clip-path: url(#clippath-75);
      }

      .cls-22 {
        fill: none;
      }

      .cls-39 {
        clip-path: url(#clippath-7);
      }

      .cls-40 {
        clip-path: url(#clippath-21);
      }

      .cls-41 {
        clip-path: url(#clippath-34);
      }

      .cls-42 {
        clip-path: url(#clippath-57);
      }

      .cls-43 {
        clip-path: url(#clippath-1);
      }

      .cls-44 {
        clip-path: url(#clippath-4);
      }

      .cls-45 {
        clip-path: url(#clippath-38);
      }

      .cls-46 {
        clip-path: url(#clippath-36);
      }

      .cls-47 {
        clip-path: url(#clippath-27);
      }

      .cls-48 {
        clip-path: url(#clippath-60);
      }

      .cls-49 {
        clip-path: url(#clippath-44);
      }

      .cls-50 {
        clip-path: url(#clippath-12);
      }

      .cls-51 {
        clip-path: url(#clippath-80);
      }

      .cls-52 {
        clip-path: url(#clippath-24);
      }

      .cls-53 {
        clip-path: url(#clippath-30);
      }

      .cls-54 {
        clip-path: url(#clippath-79);
      }

      .cls-55 {
        clip-path: url(#clippath-22);
      }

      .cls-56 {
        clip-path: url(#clippath-9);
      }

      .cls-57 {
        clip-path: url(#clippath-82);
      }

      .cls-58 {
        clip-path: url(#clippath-52);
      }

      .cls-59 {
        clip-path: url(#clippath);
      }

      .cls-60 {
        clip-path: url(#clippath-50);
      }

      .cls-61 {
        clip-path: url(#clippath-48);
      }

      .cls-62 {
        clip-path: url(#clippath-61);
      }

      .cls-63 {
        clip-path: url(#clippath-39);
      }

      .cls-64 {
        clip-path: url(#clippath-19);
      }

      .cls-65 {
        clip-path: url(#clippath-31);
      }

      .cls-66 {
        clip-path: url(#clippath-86);
      }

      .cls-67 {
        clip-path: url(#clippath-54);
      }

      .cls-68 {
        clip-path: url(#clippath-3);
      }

      .cls-69 {
        clip-path: url(#clippath-91);
      }

      .cls-70 {
        clip-path: url(#clippath-43);
      }

      .cls-71 {
        clip-path: url(#clippath-70);
      }

      .cls-72 {
        clip-path: url(#clippath-8);
      }

      .cls-73 {
        clip-path: url(#clippath-55);
      }

      .cls-74 {
        clip-path: url(#clippath-69);
      }

      .cls-23 {
        fill: #fff;
      }

      .cls-75 {
        clip-path: url(#clippath-29);
      }

      .cls-76 {
        clip-path: url(#clippath-18);
      }

      .cls-77 {
        clip-path: url(#clippath-90);
      }

      .cls-78 {
        clip-path: url(#clippath-14);
      }

      .cls-79 {
        clip-path: url(#clippath-17);
      }

      .cls-24 {
        fill: #d4af37;
      }

      .cls-80 {
        clip-path: url(#clippath-5);
      }

      .cls-81 {
        clip-path: url(#clippath-58);
      }

      .cls-82 {
        clip-path: url(#clippath-84);
      }

      .cls-83 {
        clip-path: url(#clippath-42);
      }

      .cls-84 {
        clip-path: url(#clippath-65);
      }

      .cls-85 {
        clip-path: url(#clippath-10);
      }

      .cls-25 {
        fill: #c21a35;
      }

      .cls-86 {
        clip-path: url(#clippath-23);
      }

      .cls-87 {
        clip-path: url(#clippath-92);
      }

      .cls-88 {
        clip-path: url(#clippath-74);
      }

      .cls-89 {
        clip-path: url(#clippath-56);
      }

      .cls-90 {
        clip-path: url(#clippath-53);
      }

      .cls-91 {
        clip-path: url(#clippath-49);
      }

      .cls-92 {
        clip-path: url(#clippath-67);
      }

      .cls-93 {
        clip-path: url(#clippath-51);
      }

      .cls-94 {
        clip-path: url(#clippath-28);
      }

      .cls-95 {
        clip-path: url(#clippath-71);
      }

      .cls-96 {
        clip-path: url(#clippath-85);
      }

      .cls-97 {
        clip-path: url(#clippath-68);
      }

      .cls-98 {
        clip-path: url(#clippath-35);
      }

      .cls-99 {
        clip-path: url(#clippath-66);
      }
    </style>
    <clipPath id="clippath">
      <rect class="cls-22" x="51" y="57.2" width="2385.2" height="2385.2"/>
    </clipPath>
    <clipPath id="clippath-1">
      <path class="cls-22" d="M2085.6,2092.3c-465.1,465.1-1219.4,465.1-1684.5,0-465.1-465.1-465.1-1219.4,0-1684.5,465.1-465.1,1219.4-465.1,1684.5,0,465.1,465.1,465.1,1219.4,0,1684.5Z"/>
    </clipPath>
    <clipPath id="clippath-2">
      <rect class="cls-22" x="51" y="243.1" width="2385.2" height="193.6"/>
    </clipPath>
    <clipPath id="clippath-3">
      <path class="cls-22" d="M2085.6,2092.3c-465.1,465.1-1219.4,465.1-1684.5,0-465.1-465.1-465.1-1219.4,0-1684.5,465.1-465.1,1219.4-465.1,1684.5,0,465.1,465.1,465.1,1219.4,0,1684.5Z"/>
    </clipPath>
    <clipPath id="clippath-4">
      <rect class="cls-22" x="51" y="624.6" width="2385.2" height="193.6"/>
    </clipPath>
    <clipPath id="clippath-5">
      <path class="cls-22" d="M2085.6,2092.3c-465.1,465.1-1219.4,465.1-1684.5,0-465.1-465.1-465.1-1219.4,0-1684.5,465.1-465.1,1219.4-465.1,1684.5,0,465.1,465.1,465.1,1219.4,0,1684.5Z"/>
    </clipPath>
    <clipPath id="clippath-6">
      <rect class="cls-22" x="51" y="1007.9" width="2385.2" height="191.7"/>
    </clipPath>
    <clipPath id="clippath-7">
      <path class="cls-22" d="M2085.6,2092.3c-465.1,465.1-1219.4,465.1-1684.5,0-465.1-465.1-465.1-1219.4,0-1684.5,465.1-465.1,1219.4-465.1,1684.5,0,465.1,465.1,465.1,1219.4,0,1684.5Z"/>
    </clipPath>
    <clipPath id="clippath-8">
      <rect class="cls-22" x="51" y="1389.3" width="2385.2" height="191.7"/>
    </clipPath>
    <clipPath id="clippath-9">
      <path class="cls-22" d="M2085.6,2092.3c-465.1,465.1-1219.4,465.1-1684.5,0-465.1-465.1-465.1-1219.4,0-1684.5,465.1-465.1,1219.4-465.1,1684.5,0,465.1,465.1,465.1,1219.4,0,1684.5Z"/>
    </clipPath>
    <clipPath id="clippath-10">
      <rect class="cls-22" x="51" y="1770.7" width="2385.2" height="191.7"/>
    </clipPath>
    <clipPath id="clippath-11">
      <path class="cls-22" d="M2085.6,2092.3c-465.1,465.1-1219.4,465.1-1684.5,0-465.1-465.1-465.1-1219.4,0-1684.5,465.1-465.1,1219.4-465.1,1684.5,0,465.1,465.1,465.1,1219.4,0,1684.5Z"/>
    </clipPath>
    <clipPath id="clippath-12">
      <rect class="cls-22" x="51" y="2152.1" width="2385.2" height="191.7"/>
    </clipPath>
    <clipPath id="clippath-13">
      <path class="cls-22" d="M2085.6,2092.3c-465.1,465.1-1219.4,465.1-1684.5,0-465.1-465.1-465.1-1219.4,0-1684.5,465.1-465.1,1219.4-465.1,1684.5,0,465.1,465.1,465.1,1219.4,0,1684.5Z"/>
    </clipPath>
    <clipPath id="clippath-14">
      <rect class="cls-22" x="51" y="57.2" width="2385.2" height="187.9"/>
    </clipPath>
    <clipPath id="clippath-15">
      <path class="cls-22" d="M2085.6,2092.3c-465.1,465.1-1219.4,465.1-1684.5,0-465.1-465.1-465.1-1219.4,0-1684.5,465.1-465.1,1219.4-465.1,1684.5,0,465.1,465.1,465.1,1219.4,0,1684.5Z"/>
    </clipPath>
    <clipPath id="clippath-16">
      <rect class="cls-22" x="51" y="434.8" width="2385.2" height="191.7"/>
    </clipPath>
    <clipPath id="clippath-17">
      <path class="cls-22" d="M2085.6,2092.3c-465.1,465.1-1219.4,465.1-1684.5,0-465.1-465.1-465.1-1219.4,0-1684.5,465.1-465.1,1219.4-465.1,1684.5,0,465.1,465.1,465.1,1219.4,0,1684.5Z"/>
    </clipPath>
    <clipPath id="clippath-18">
      <rect class="cls-22" x="51" y="816.2" width="2385.2" height="193.6"/>
    </clipPath>
    <clipPath id="clippath-19">
      <path class="cls-22" d="M2085.6,2092.3c-465.1,465.1-1219.4,465.1-1684.5,0-465.1-465.1-465.1-1219.4,0-1684.5,465.1-465.1,1219.4-465.1,1684.5,0,465.1,465.1,465.1,1219.4,0,1684.5Z"/>
    </clipPath>
    <clipPath id="clippath-20">
      <rect class="cls-22" x="51" y="1197.6" width="2385.2" height="193.6"/>
    </clipPath>
    <clipPath id="clippath-21">
      <path class="cls-22" d="M2085.6,2092.3c-465.1,465.1-1219.4,465.1-1684.5,0-465.1-465.1-465.1-1219.4,0-1684.5,465.1-465.1,1219.4-465.1,1684.5,0,465.1,465.1,465.1,1219.4,0,1684.5Z"/>
    </clipPath>
    <clipPath id="clippath-22">
      <rect class="cls-22" x="51" y="1579" width="2385.2" height="193.6"/>
    </clipPath>
    <clipPath id="clippath-23">
      <path class="cls-22" d="M2085.6,2092.3c-465.1,465.1-1219.4,465.1-1684.5,0-465.1-465.1-465.1-1219.4,0-1684.5,465.1-465.1,1219.4-465.1,1684.5,0,465.1,465.1,465.1,1219.4,0,1684.5Z"/>
    </clipPath>
    <clipPath id="clippath-24">
      <rect class="cls-22" x="51" y="1960.4" width="2385.2" height="193.6"/>
    </clipPath>
    <clipPath id="clippath-25">
      <path class="cls-22" d="M2085.6,2092.3c-465.1,465.1-1219.4,465.1-1684.5,0-465.1-465.1-465.1-1219.4,0-1684.5,465.1-465.1,1219.4-465.1,1684.5,0,465.1,465.1,465.1,1219.4,0,1684.5Z"/>
    </clipPath>
    <clipPath id="clippath-26">
      <rect class="cls-22" x="51" y="2341.8" width="2385.2" height="100.6"/>
    </clipPath>
    <clipPath id="clippath-27">
      <path class="cls-22" d="M2085.6,2092.3c-465.1,465.1-1219.4,465.1-1684.5,0-465.1-465.1-465.1-1219.4,0-1684.5,465.1-465.1,1219.4-465.1,1684.5,0,465.1,465.1,465.1,1219.4,0,1684.5Z"/>
    </clipPath>
    <clipPath id="clippath-28">
      <rect class="cls-22" x="51" y="57.2" width="1045.6" height="1334"/>
    </clipPath>
    <clipPath id="clippath-29">
      <path class="cls-22" d="M2085.6,2092.3c-465.1,465.1-1219.4,465.1-1684.5,0-465.1-465.1-465.1-1219.4,0-1684.5,465.1-465.1,1219.4-465.1,1684.5,0,465.1,465.1,465.1,1219.4,0,1684.5Z"/>
    </clipPath>
    <clipPath id="clippath-30">
      <rect class="cls-22" x="51" y="140.7" width="100.6" height="94.9"/>
    </clipPath>
    <clipPath id="clippath-31">
      <path class="cls-22" d="M2085.6,2092.3c-465.1,465.1-1219.4,465.1-1684.5,0-465.1-465.1-465.1-1219.4,0-1684.5,465.1-465.1,1219.4-465.1,1684.5,0,465.1,465.1,465.1,1219.4,0,1684.5Z"/>
    </clipPath>
    <clipPath id="clippath-32">
      <rect class="cls-22" x="333.8" y="140.7" width="100.6" height="94.9"/>
    </clipPath>
    <clipPath id="clippath-33">
      <path class="cls-22" d="M2085.6,2092.3c-465.1,465.1-1219.4,465.1-1684.5,0-465.1-465.1-465.1-1219.4,0-1684.5,465.1-465.1,1219.4-465.1,1684.5,0,465.1,465.1,465.1,1219.4,0,1684.5Z"/>
    </clipPath>
    <clipPath id="clippath-34">
      <rect class="cls-22" x="616.5" y="140.7" width="100.6" height="94.9"/>
    </clipPath>
    <clipPath id="clippath-35">
      <path class="cls-22" d="M2085.6,2092.3c-465.1,465.1-1219.4,465.1-1684.5,0-465.1-465.1-465.1-1219.4,0-1684.5,465.1-465.1,1219.4-465.1,1684.5,0,465.1,465.1,465.1,1219.4,0,1684.5Z"/>
    </clipPath>
    <clipPath id="clippath-36">
      <rect class="cls-22" x="899.2" y="140.7" width="100.6" height="94.9"/>
    </clipPath>
    <clipPath id="clippath-37">
      <path class="cls-22" d="M2085.6,2092.3c-465.1,465.1-1219.4,465.1-1684.5,0-465.1-465.1-465.1-1219.4,0-1684.5,465.1-465.1,1219.4-465.1,1684.5,0,465.1,465.1,465.1,1219.4,0,1684.5Z"/>
    </clipPath>
    <clipPath id="clippath-38">
      <rect class="cls-22" x="193.3" y="273.5" width="98.7" height="94.9"/>
    </clipPath>
    <clipPath id="clippath-39">
      <path class="cls-22" d="M2085.6,2092.3c-465.1,465.1-1219.4,465.1-1684.5,0-465.1-465.1-465.1-1219.4,0-1684.5,465.1-465.1,1219.4-465.1,1684.5,0,465.1,465.1,465.1,1219.4,0,1684.5Z"/>
    </clipPath>
    <clipPath id="clippath-40">
      <rect class="cls-22" x="476.1" y="273.5" width="98.7" height="94.9"/>
    </clipPath>
    <clipPath id="clippath-41">
      <path class="cls-22" d="M2085.6,2092.3c-465.1,465.1-1219.4,465.1-1684.5,0-465.1-465.1-465.1-1219.4,0-1684.5,465.1-465.1,1219.4-465.1,1684.5,0,465.1,465.1,465.1,1219.4,0,1684.5Z"/>
    </clipPath>
    <clipPath id="clippath-42">
      <rect class="cls-22" x="758.8" y="273.5" width="98.7" height="94.9"/>
    </clipPath>
    <clipPath id="clippath-43">
      <path class="cls-22" d="M2085.6,2092.3c-465.1,465.1-1219.4,465.1-1684.5,0-465.1-465.1-465.1-1219.4,0-1684.5,465.1-465.1,1219.4-465.1,1684.5,0,465.1,465.1,465.1,1219.4,0,1684.5Z"/>
    </clipPath>
    <clipPath id="clippath-44">
      <rect class="cls-22" x="51" y="406.3" width="100.6" height="94.9"/>
    </clipPath>
    <clipPath id="clippath-45">
      <path class="cls-22" d="M2085.6,2092.3c-465.1,465.1-1219.4,465.1-1684.5,0-465.1-465.1-465.1-1219.4,0-1684.5,465.1-465.1,1219.4-465.1,1684.5,0,465.1,465.1,465.1,1219.4,0,1684.5Z"/>
    </clipPath>
    <clipPath id="clippath-46">
      <rect class="cls-22" x="333.8" y="406.3" width="100.6" height="94.9"/>
    </clipPath>
    <clipPath id="clippath-47">
      <path class="cls-22" d="M2085.6,2092.3c-465.1,465.1-1219.4,465.1-1684.5,0-465.1-465.1-465.1-1219.4,0-1684.5,465.1-465.1,1219.4-465.1,1684.5,0,465.1,465.1,465.1,1219.4,0,1684.5Z"/>
    </clipPath>
    <clipPath id="clippath-48">
      <rect class="cls-22" x="616.5" y="406.3" width="100.6" height="94.9"/>
    </clipPath>
    <clipPath id="clippath-49">
      <path class="cls-22" d="M2085.6,2092.3c-465.1,465.1-1219.4,465.1-1684.5,0-465.1-465.1-465.1-1219.4,0-1684.5,465.1-465.1,1219.4-465.1,1684.5,0,465.1,465.1,465.1,1219.4,0,1684.5Z"/>
    </clipPath>
    <clipPath id="clippath-50">
      <rect class="cls-22" x="899.2" y="406.3" width="100.6" height="94.9"/>
    </clipPath>
    <clipPath id="clippath-51">
      <path class="cls-22" d="M2085.6,2092.3c-465.1,465.1-1219.4,465.1-1684.5,0-465.1-465.1-465.1-1219.4,0-1684.5,465.1-465.1,1219.4-465.1,1684.5,0,465.1,465.1,465.1,1219.4,0,1684.5Z"/>
    </clipPath>
    <clipPath id="clippath-52">
      <rect class="cls-22" x="193.3" y="539.2" width="98.7" height="94.9"/>
    </clipPath>
    <clipPath id="clippath-53">
      <path class="cls-22" d="M2085.6,2092.3c-465.1,465.1-1219.4,465.1-1684.5,0-465.1-465.1-465.1-1219.4,0-1684.5,465.1-465.1,1219.4-465.1,1684.5,0,465.1,465.1,465.1,1219.4,0,1684.5Z"/>
    </clipPath>
    <clipPath id="clippath-54">
      <rect class="cls-22" x="476.1" y="539.2" width="98.7" height="94.9"/>
    </clipPath>
    <clipPath id="clippath-55">
      <path class="cls-22" d="M2085.6,2092.3c-465.1,465.1-1219.4,465.1-1684.5,0-465.1-465.1-465.1-1219.4,0-1684.5,465.1-465.1,1219.4-465.1,1684.5,0,465.1,465.1,465.1,1219.4,0,1684.5Z"/>
    </clipPath>
    <clipPath id="clippath-56">
      <rect class="cls-22" x="758.8" y="539.2" width="98.7" height="94.9"/>
    </clipPath>
    <clipPath id="clippath-57">
      <path class="cls-22" d="M2085.6,2092.3c-465.1,465.1-1219.4,465.1-1684.5,0-465.1-465.1-465.1-1219.4,0-1684.5,465.1-465.1,1219.4-465.1,1684.5,0,465.1,465.1,465.1,1219.4,0,1684.5Z"/>
    </clipPath>
    <clipPath id="clippath-58">
      <rect class="cls-22" x="51" y="672" width="100.6" height="94.9"/>
    </clipPath>
    <clipPath id="clippath-59">
      <path class="cls-22" d="M2085.6,2092.3c-465.1,465.1-1219.4,465.1-1684.5,0-465.1-465.1-465.1-1219.4,0-1684.5,465.1-465.1,1219.4-465.1,1684.5,0,465.1,465.1,465.1,1219.4,0,1684.5Z"/>
    </clipPath>
    <clipPath id="clippath-60">
      <rect class="cls-22" x="333.8" y="672" width="100.6" height="94.9"/>
    </clipPath>
    <clipPath id="clippath-61">
      <path class="cls-22" d="M2085.6,2092.3c-465.1,465.1-1219.4,465.1-1684.5,0-465.1-465.1-465.1-1219.4,0-1684.5,465.1-465.1,1219.4-465.1,1684.5,0,465.1,465.1,465.1,1219.4,0,1684.5Z"/>
    </clipPath>
    <clipPath id="clippath-62">
      <rect class="cls-22" x="616.5" y="672" width="100.6" height="94.9"/>
    </clipPath>
    <clipPath id="clippath-63">
      <path class="cls-22" d="M2085.6,2092.3c-465.1,465.1-1219.4,465.1-1684.5,0-465.1-465.1-465.1-1219.4,0-1684.5,465.1-465.1,1219.4-465.1,1684.5,0,465.1,465.1,465.1,1219.4,0,1684.5Z"/>
    </clipPath>
    <clipPath id="clippath-64">
      <rect class="cls-22" x="899.2" y="672" width="100.6" height="94.9"/>
    </clipPath>
    <clipPath id="clippath-65">
      <path class="cls-22" d="M2085.6,2092.3c-465.1,465.1-1219.4,465.1-1684.5,0-465.1-465.1-465.1-1219.4,0-1684.5,465.1-465.1,1219.4-465.1,1684.5,0,465.1,465.1,465.1,1219.4,0,1684.5Z"/>
    </clipPath>
    <clipPath id="clippath-66">
      <rect class="cls-22" x="193.3" y="804.8" width="98.7" height="94.9"/>
    </clipPath>
    <clipPath id="clippath-67">
      <path class="cls-22" d="M2085.6,2092.3c-465.1,465.1-1219.4,465.1-1684.5,0-465.1-465.1-465.1-1219.4,0-1684.5,465.1-465.1,1219.4-465.1,1684.5,0,465.1,465.1,465.1,1219.4,0,1684.5Z"/>
    </clipPath>
    <clipPath id="clippath-68">
      <rect class="cls-22" x="476.1" y="804.8" width="98.7" height="94.9"/>
    </clipPath>
    <clipPath id="clippath-69">
      <path class="cls-22" d="M2085.6,2092.3c-465.1,465.1-1219.4,465.1-1684.5,0-465.1-465.1-465.1-1219.4,0-1684.5,465.1-465.1,1219.4-465.1,1684.5,0,465.1,465.1,465.1,1219.4,0,1684.5Z"/>
    </clipPath>
    <clipPath id="clippath-70">
      <rect class="cls-22" x="758.8" y="804.8" width="98.7" height="94.9"/>
    </clipPath>
    <clipPath id="clippath-71">
      <path class="cls-22" d="M2085.6,2092.3c-465.1,465.1-1219.4,465.1-1684.5,0-465.1-465.1-465.1-1219.4,0-1684.5,465.1-465.1,1219.4-465.1,1684.5,0,465.1,465.1,465.1,1219.4,0,1684.5Z"/>
    </clipPath>
    <clipPath id="clippath-72">
      <rect class="cls-22" x="51" y="937.6" width="100.6" height="94.9"/>
    </clipPath>
    <clipPath id="clippath-73">
      <path class="cls-22" d="M2085.6,2092.3c-465.1,465.1-1219.4,465.1-1684.5,0-465.1-465.1-465.1-1219.4,0-1684.5,465.1-465.1,1219.4-465.1,1684.5,0,465.1,465.1,465.1,1219.4,0,1684.5Z"/>
    </clipPath>
    <clipPath id="clippath-74">
      <rect class="cls-22" x="333.8" y="937.6" width="100.6" height="94.9"/>
    </clipPath>
    <clipPath id="clippath-75">
      <path class="cls-22" d="M2085.6,2092.3c-465.1,465.1-1219.4,465.1-1684.5,0-465.1-465.1-465.1-1219.4,0-1684.5,465.1-465.1,1219.4-465.1,1684.5,0,465.1,465.1,465.1,1219.4,0,1684.5Z"/>
    </clipPath>
    <clipPath id="clippath-76">
      <rect class="cls-22" x="616.5" y="937.6" width="100.6" height="94.9"/>
    </clipPath>
    <clipPath id="clippath-77">
      <path class="cls-22" d="M2085.6,2092.3c-465.1,465.1-1219.4,465.1-1684.5,0-465.1-465.1-465.1-1219.4,0-1684.5,465.1-465.1,1219.4-465.1,1684.5,0,465.1,465.1,465.1,1219.4,0,1684.5Z"/>
    </clipPath>
    <clipPath id="clippath-78">
      <rect class="cls-22" x="899.2" y="937.6" width="100.6" height="94.9"/>
    </clipPath>
    <clipPath id="clippath-79">
      <path class="cls-22" d="M2085.6,2092.3c-465.1,465.1-1219.4,465.1-1684.5,0-465.1-465.1-465.1-1219.4,0-1684.5,465.1-465.1,1219.4-465.1,1684.5,0,465.1,465.1,465.1,1219.4,0,1684.5Z"/>
    </clipPath>
    <clipPath id="clippath-80">
      <rect class="cls-22" x="193.3" y="1070.5" width="98.7" height="94.9"/>
    </clipPath>
    <clipPath id="clippath-81">
      <path class="cls-22" d="M2085.6,2092.3c-465.1,465.1-1219.4,465.1-1684.5,0-465.1-465.1-465.1-1219.4,0-1684.5,465.1-465.1,1219.4-465.1,1684.5,0,465.1,465.1,465.1,1219.4,0,1684.5Z"/>
    </clipPath>
    <clipPath id="clippath-82">
      <rect class="cls-22" x="476.1" y="1070.5" width="98.7" height="94.9"/>
    </clipPath>
    <clipPath id="clippath-83">
      <path class="cls-22" d="M2085.6,2092.3c-465.1,465.1-1219.4,465.1-1684.5,0-465.1-465.1-465.1-1219.4,0-1684.5,465.1-465.1,1219.4-465.1,1684.5,0,465.1,465.1,465.1,1219.4,0,1684.5Z"/>
    </clipPath>
    <clipPath id="clippath-84">
      <rect class="cls-22" x="758.8" y="1070.5" width="98.7" height="94.9"/>
    </clipPath>
    <clipPath id="clippath-85">
      <path class="cls-22" d="M2085.6,2092.3c-465.1,465.1-1219.4,465.1-1684.5,0-465.1-465.1-465.1-1219.4,0-1684.5,465.1-465.1,1219.4-465.1,1684.5,0,465.1,465.1,465.1,1219.4,0,1684.5Z"/>
    </clipPath>
    <clipPath id="clippath-86">
      <rect class="cls-22" x="51" y="1203.3" width="100.6" height="94.9"/>
    </clipPath>
    <clipPath id="clippath-87">
      <path class="cls-22" d="M2085.6,2092.3c-465.1,465.1-1219.4,465.1-1684.5,0-465.1-465.1-465.1-1219.4,0-1684.5,465.1-465.1,1219.4-465.1,1684.5,0,465.1,465.1,465.1,1219.4,0,1684.5Z"/>
    </clipPath>
    <clipPath id="clippath-88">
      <rect class="cls-22" x="333.8" y="1203.3" width="100.6" height="94.9"/>
    </clipPath>
    <clipPath id="clippath-89">
      <path class="cls-22" d="M2085.6,2092.3c-465.1,465.1-1219.4,465.1-1684.5,0-465.1-465.1-465.1-1219.4,0-1684.5,465.1-465.1,1219.4-465.1,1684.5,0,465.1,465.1,465.1,1219.4,0,1684.5Z"/>
    </clipPath>
    <clipPath id="clippath-90">
      <rect class="cls-22" x="616.5" y="1203.3" width="100.6" height="94.9"/>
    </clipPath>
    <clipPath id="clippath-91">
      <path class="cls-22" d="M2085.6,2092.3c-465.1,465.1-1219.4,465.1-1684.5,0-465.1-465.1-465.1-1219.4,0-1684.5,465.1-465.1,1219.4-465.1,1684.5,0,465.1,465.1,465.1,1219.4,0,1684.5Z"/>
    </clipPath>
    <clipPath id="clippath-92">
      <rect class="cls-22" x="899.2" y="1203.3" width="100.6" height="94.9"/>
    </clipPath>
    <clipPath id="clippath-93">
      <path class="cls-22" d="M2085.6,2092.3c-465.1,465.1-1219.4,465.1-1684.5,0-465.1-465.1-465.1-1219.4,0-1684.5,465.1-465.1,1219.4-465.1,1684.5,0,465.1,465.1,465.1,1219.4,0,1684.5Z"/>
    </clipPath>
  </defs>
  <path class="cls-24" d="M2107.8,2111.5c-477.4,475.7-1251.2,475.7-1728.7,0-477.4-475.7-477.4-1247.1,0-1723,477.4-475.7,1251.2-475.7,1728.7,0,477.4,475.7,477.4,1247.1,0,1723"/>
  <g class="cls-59">
    <g class="cls-43">
      <path class="cls-23" d="M3396.6,2516.2H-597.6V54.1h3994.2v2462.1"/>
    </g>
  </g>
  <g class="cls-26">
    <g class="cls-68">
      <path class="cls-23" d="M3396.6,435.6H-597.6v-190.7h3994.2v190.7"/>
    </g>
  </g>
  <g class="cls-44">
    <g class="cls-80">
      <path class="cls-23" d="M3396.6,817.2H-597.6v-190.7h3994.2v190.7"/>
    </g>
  </g>
  <g class="cls-33">
    <g class="cls-39">
      <path class="cls-23" d="M3396.6,1198.8H-597.6v-190.7h3994.2v190.7"/>
    </g>
  </g>
  <g class="cls-72">
    <g class="cls-56">
      <path class="cls-23" d="M3396.6,1580.2H-597.6v-190.7h3994.2v190.7"/>
    </g>
  </g>
  <g class="cls-85">
    <g class="cls-7">
      <path class="cls-23" d="M3396.6,1961.8H-597.6v-190.7h3994.2v190.7"/>
    </g>
  </g>
  <g class="cls-50">
    <g class="cls-27">
      <path class="cls-23" d="M3334,2343.4H-597.6v-190.7h3931.5v190.7"/>
    </g>
  </g>
  <g class="cls-78">
    <g class="cls-32">
      <path class="cls-25" d="M3396.6,244.9H-597.6V54.1h3994.2v190.7"/>
    </g>
  </g>
  <g class="cls-8">
    <g class="cls-79">
      <path class="cls-25" d="M3396.6,626.5H-597.6v-190.7h3994.2v190.7"/>
    </g>
  </g>
  <g class="cls-76">
    <g class="cls-64">
      <path class="cls-25" d="M3396.6,1007.9H-597.6v-190.7h3994.2v190.7"/>
    </g>
  </g>
  <g class="cls-6">
    <g class="cls-40">
      <path class="cls-25" d="M3396.6,1389.5H-597.6v-190.7h3994.2v190.7"/>
    </g>
  </g>
  <g class="cls-55">
    <g class="cls-86">
      <path class="cls-25" d="M3396.6,1771.1H-597.6v-190.7h3994.2v190.7"/>
    </g>
  </g>
  <g class="cls-52">
    <g class="cls-31">
      <path class="cls-25" d="M3396.6,2152.5H-597.6v-190.7h3994.2v190.7"/>
    </g>
  </g>
  <g class="cls-36">
    <g class="cls-47">
      <path class="cls-25" d="M3396.6,2534.1H-597.6v-190.7h3994.2v190.7"/>
    </g>
  </g>
  <g class="cls-94">
    <g class="cls-75">
      <path class="cls-21" d="M1095.4,1389.5H-597.6V54.1h1693v1335.3"/>
    </g>
  </g>
  <g class="cls-53">
    <g class="cls-65">
      <path class="cls-23" d="M101.1,141.2l11.6,35.5h37.2l-30.2,21.8,11.6,35.5-30.2-21.8-30.2,21.8,11.6-35.5-30.2-21.8h37.2l11.6-35.5"/>
    </g>
  </g>
  <g class="cls-18">
    <g class="cls-13">
      <path class="cls-23" d="M383.9,141.2l11.6,35.5h37.2l-30.2,21.8,11.6,35.5-30.2-21.8-30.2,21.8,11.6-35.5-30.2-21.8h37.2l11.6-35.5"/>
    </g>
  </g>
  <g class="cls-41">
    <g class="cls-98">
      <path class="cls-23" d="M666.6,141.2l11.6,35.5h37.2l-30.2,21.8,11.6,35.5-30.2-21.8-30.2,21.8,11.6-35.5-30.2-21.8h37.2l11.6-35.5"/>
    </g>
  </g>
  <g class="cls-46">
    <g class="cls-29">
      <path class="cls-23" d="M949.5,141.2l11.6,35.5h37.2l-30.2,21.8,11.6,35.5-30.2-21.8-30.2,21.8,11.6-35.5-30.2-21.8h37.2l11.6-35.5"/>
    </g>
  </g>
  <g class="cls-45">
    <g class="cls-63">
      <path class="cls-23" d="M242.5,274.1l11.6,35.5h37.2l-30.2,21.8,11.6,35.5-30.2-21.8-30.2,21.8,11.6-35.5-30.2-21.8h37.2l11.6-35.5"/>
    </g>
  </g>
  <g class="cls-35">
    <g class="cls-17">
      <path class="cls-23" d="M525.2,274.1l11.6,35.5h37.2l-30.2,21.8,11.6,35.5-30.2-21.8-30.2,21.8,11.6-35.5-30.2-21.8h37.2l11.6-35.5"/>
    </g>
  </g>
  <g class="cls-83">
    <g class="cls-70">
      <path class="cls-23" d="M808.1,274.1l11.6,35.5h37.2l-30.2,21.8,11.6,35.5-30.2-21.8-30.2,21.8,11.6-35.5-30.2-21.8h37.2l11.6-35.5"/>
    </g>
  </g>
  <g class="cls-49">
    <g class="cls-4">
      <path class="cls-23" d="M101.1,406.9l11.6,35.5h37.2l-30.2,21.8,11.6,35.5-30.2-21.8-30.2,21.8,11.6-35.5-30.2-21.8h37.2l11.6-35.5"/>
    </g>
  </g>
  <g class="cls-30">
    <g class="cls-15">
      <path class="cls-23" d="M383.9,406.9l11.6,35.5h37.2l-30.2,21.8,11.6,35.5-30.2-21.8-30.2,21.8,11.6-35.5-30.2-21.8h37.2l11.6-35.5"/>
    </g>
  </g>
  <g class="cls-61">
    <g class="cls-91">
      <path class="cls-23" d="M666.6,406.9l11.6,35.5h37.2l-30.2,21.8,11.6,35.5-30.2-21.8-30.2,21.8,11.6-35.5-30.2-21.8h37.2l11.6-35.5"/>
    </g>
  </g>
  <g class="cls-60">
    <g class="cls-93">
      <path class="cls-23" d="M949.5,406.9l11.6,35.5h37.2l-30.2,21.8,11.6,35.5-30.2-21.8-30.2,21.8,11.6-35.5-30.2-21.8h37.2l11.6-35.5"/>
    </g>
  </g>
  <g class="cls-58">
    <g class="cls-90">
      <path class="cls-23" d="M242.5,539.7l11.6,35.5h37.2l-30.2,21.8,11.6,35.5-30.2-21.8-30.2,21.8,11.6-35.5-30.2-21.8h37.2l11.6-35.5"/>
    </g>
  </g>
  <g class="cls-67">
    <g class="cls-73">
      <path class="cls-23" d="M525.2,539.7l11.6,35.5h37.2l-30.2,21.8,11.6,35.5-30.2-21.8-30.2,21.8,11.6-35.5-30.2-21.8h37.2l11.6-35.5"/>
    </g>
  </g>
  <g class="cls-89">
    <g class="cls-42">
      <path class="cls-23" d="M808.1,539.7l11.6,35.5h37.2l-30.2,21.8,11.6,35.5-30.2-21.8-30.2,21.8,11.6-35.5-30.2-21.8h37.2l11.6-35.5"/>
    </g>
  </g>
  <g class="cls-81">
    <g class="cls-9">
      <path class="cls-23" d="M101.1,672.4l11.6,35.5h37.2l-30.2,21.8,11.6,35.5-30.2-21.8-30.2,21.8,11.6-35.5-30.2-21.8h37.2l11.6-35.5"/>
    </g>
  </g>
  <g class="cls-48">
    <g class="cls-62">
      <path class="cls-23" d="M383.9,672.4l11.6,35.5h37.2l-30.2,21.8,11.6,35.5-30.2-21.8-30.2,21.8,11.6-35.5-30.2-21.8h37.2l11.6-35.5"/>
    </g>
  </g>
  <g class="cls-3">
    <g class="cls-5">
      <path class="cls-23" d="M666.6,672.4l11.6,35.5h37.2l-30.2,21.8,11.6,35.5-30.2-21.8-30.2,21.8,11.6-35.5-30.2-21.8h37.2l11.6-35.5"/>
    </g>
  </g>
  <g class="cls-14">
    <g class="cls-84">
      <path class="cls-23" d="M949.5,672.4l11.6,35.5h37.2l-30.2,21.8,11.6,35.5-30.2-21.8-30.2,21.8,11.6-35.5-30.2-21.8h37.2l11.6-35.5"/>
    </g>
  </g>
  <g class="cls-99">
    <g class="cls-92">
      <path class="cls-23" d="M242.5,805.2l11.6,35.5h37.2l-30.2,21.8,11.6,35.5-30.2-21.8-30.2,21.8,11.6-35.5-30.2-21.8h37.2l11.6-35.5"/>
    </g>
  </g>
  <g class="cls-97">
    <g class="cls-74">
      <path class="cls-23" d="M525.2,805.2l11.6,35.5h37.2l-30.2,21.8,11.6,35.5-30.2-21.8-30.2,21.8,11.6-35.5-30.2-21.8h37.2l11.6-35.5"/>
    </g>
  </g>
  <g class="cls-71">
    <g class="cls-95">
      <path class="cls-23" d="M808.1,805.2l11.6,35.5h37.2l-30.2,21.8,11.6,35.5-30.2-21.8-30.2,21.8,11.6-35.5-30.2-21.8h37.2l11.6-35.5"/>
    </g>
  </g>
  <g class="cls-2">
    <g class="cls-1">
      <path class="cls-23" d="M101.1,938l11.6,35.5h37.2l-30.2,22,11.6,35.5-30.2-21.8-30.2,21.8,11.6-35.5-30.2-22h37.2l11.6-35.5"/>
    </g>
  </g>
  <g class="cls-88">
    <g class="cls-38">
      <path class="cls-23" d="M383.9,938l11.6,35.5h37.2l-30.2,22,11.6,35.5-30.2-21.8-30.2,21.8,11.6-35.5-30.2-22h37.2l11.6-35.5"/>
    </g>
  </g>
  <g class="cls-34">
    <g class="cls-16">
      <path class="cls-23" d="M666.6,938l11.6,35.5h37.2l-30.2,22,11.6,35.5-30.2-21.8-30.2,21.8,11.6-35.5-30.2-22h37.2l11.6-35.5"/>
    </g>
  </g>
  <g class="cls-10">
    <g class="cls-54">
      <path class="cls-23" d="M949.5,938l11.6,35.5h37.2l-30.2,22,11.6,35.5-30.2-21.8-30.2,21.8,11.6-35.5-30.2-22h37.2l11.6-35.5"/>
    </g>
  </g>
  <g class="cls-51">
    <g class="cls-37">
      <path class="cls-23" d="M242.5,1070.9l11.6,35.5h37.2l-30.2,21.8,11.6,35.5-30.2-21.8-30.2,21.8,11.6-35.5-30.2-21.8h37.2l11.6-35.5"/>
    </g>
  </g>
  <g class="cls-57">
    <g class="cls-20">
      <path class="cls-23" d="M525.2,1070.9l11.6,35.5h37.2l-30.2,21.8,11.6,35.5-30.2-21.8-30.2,21.8,11.6-35.5-30.2-21.8h37.2l11.6-35.5"/>
    </g>
  </g>
  <g class="cls-82">
    <g class="cls-96">
      <path class="cls-23" d="M808.1,1070.9l11.6,35.5h37.2l-30.2,21.8,11.6,35.5-30.2-21.8-30.2,21.8,11.6-35.5-30.2-21.8h37.2l11.6-35.5"/>
    </g>
  </g>
  <g class="cls-66">
    <g class="cls-19">
      <path class="cls-23" d="M101.1,1203.7l11.6,35.5h37.2l-30.2,21.8,11.6,35.5-30.2-21.8-30.2,21.8,11.6-35.5-30.2-21.8h37.2l11.6-35.5"/>
    </g>
  </g>
  <g class="cls-28">
    <g class="cls-12">
      <path class="cls-23" d="M383.9,1203.7l11.6,35.5h37.2l-30.2,21.8,11.6,35.5-30.2-21.8-30.2,21.8,11.6-35.5-30.2-21.8h37.2l11.6-35.5"/>
    </g>
  </g>
  <g class="cls-77">
    <g class="cls-69">
      <path class="cls-23" d="M666.6,1203.7l11.6,35.5h37.2l-30.2,21.8,11.6,35.5-30.2-21.8-30.2,21.8,11.6-35.5-30.2-21.8h37.2l11.6-35.5"/>
    </g>
  </g>
  <g class="cls-87">
    <g class="cls-11">
      <path class="cls-23" d="M949.5,1203.7l11.6,35.5h37.2l-30.2,21.8,11.6,35.5-30.2-21.8-30.2,21.8,11.6-35.5-30.2-21.8h37.2l11.6-35.5"/>
    </g>
  </g>
</svg>